<svg width="1564" height="1632" viewBox="0 0 1564 1632" fill="none" xmlns="http://www.w3.org/2000/svg">
<path d="M801.906 180.05C786.084 170.701 768.347 176.149 761.451 180.05L874.725 114.172C891.204 105.326 933.07 89.1798 968.67 95.293C981.705 95.5896 1015.51 100.687 1046.43 118.667L1458.17 356.703C1546.99 408.485 1565.31 502.034 1563.36 542.345L1562.46 862.585L1550.77 881.914L1533.69 900.343L1508.97 919.222L1485.59 932.257L1459.97 941.868L1437.95 947.091L1419.52 948.242H1388.05V542.345C1388.05 524.725 1376.66 512.526 1370.97 508.633L801.906 180.05Z" fill="url(#paint0_linear_97_11)"/>
<path d="M801.005 179.601C785.182 170.251 767.445 175.699 760.55 179.601L873.823 113.723C890.302 104.877 932.168 88.7306 967.768 94.8437C980.804 95.1404 1014.61 100.238 1045.53 118.218L1457.27 356.254C1546.09 408.036 1564.4 501.585 1562.45 541.896L1561.55 862.136L1549.87 881.464L1532.79 899.894L1508.06 918.773L1484.69 931.808L1459.07 941.419L1437.04 946.641L1418.61 947.792H1387.15V541.896C1387.15 524.276 1375.76 512.076 1370.07 508.184L801.005 179.601Z" fill="url(#paint1_linear_97_11)"/>
<path d="M801.904 180.5C786.081 171.151 768.344 176.599 761.449 180.5L874.722 114.622C891.201 105.776 933.067 89.63 968.667 95.7432C981.703 96.0398 1015.5 101.137 1046.43 119.117L1458.17 357.153C1546.99 408.935 1565.3 502.484 1563.35 542.795L1562.45 863.035L1550.77 882.364L1533.69 900.793L1508.96 919.672L1485.59 932.707L1459.97 942.319L1437.94 947.541L1419.51 948.692H1388.05V542.795C1388.05 525.175 1376.66 512.976 1370.97 509.083L801.904 180.5Z" fill="url(#paint2_linear_97_11)"/>
<path d="M201.486 1233.67L614.014 1472.1C650.872 1493.68 672.448 1548.07 627.049 1603.81C590.73 1648.4 534.749 1628.53 513.326 1615.94L109.788 1382.91C17.7309 1329.33 -1.68735 1234.42 0.110641 1193.67V540.098C0.110641 441.927 69.0366 376.93 103.495 356.703L668.513 32.1655C770.28 -26.0894 862.849 7.89266 896.409 32.1655L1048.68 120.015C983.234 82.2575 913.382 93.495 875.174 115.52L762.009 180.05L196.092 506.835C180.269 515.825 176.017 532.753 175.864 540.098V1193.67C175.864 1218.12 192.945 1230.53 201.486 1233.67Z" fill="url(#paint3_linear_97_11)"/>
<path d="M1154.31 1122.84H1287.81C1448.19 1122.84 1537.73 949.338 1562.46 862.585C1519.5 930 1452.03 947.24 1422.21 947.54H1222.45L1116.52 530.406C1111.91 512.251 1101.6 496.05 1087.11 484.18C1072.62 472.31 1054.7 465.394 1036 464.447C1017.29 463.5 998.769 468.571 983.153 478.918C967.537 489.264 955.647 504.341 949.225 521.938L783.603 975.813L624.301 522.891C618.209 505.616 606.859 490.684 591.844 480.192C576.829 469.7 558.905 464.176 540.589 464.395C522.273 464.615 504.486 470.566 489.727 481.414C474.967 492.263 463.977 507.462 458.301 524.877L272.5 1122.84H384.278C402.78 1122.84 420.808 1116.99 435.779 1106.12C450.751 1095.25 461.898 1079.92 467.623 1062.32L544.812 825.259L699.439 1264.75C705.432 1281.79 716.544 1296.56 731.253 1307.05C745.963 1317.53 763.552 1323.21 781.615 1323.32C799.678 1323.42 817.332 1317.95 832.163 1307.63C846.993 1297.32 858.276 1282.68 864.468 1265.71L1016.57 848.884L1069.36 1056.77C1074.16 1075.66 1085.12 1092.41 1100.5 1104.38C1115.89 1116.34 1134.82 1122.84 1154.31 1122.84Z" fill="url(#paint4_linear_97_11)"/>
<defs>
<linearGradient id="paint0_linear_97_11" x1="1014.52" y1="93.4953" x2="1467.61" y2="927.313" gradientUnits="userSpaceOnUse">
<stop stop-color="#5AD0F2"/>
<stop offset="0.520833" stop-color="#00FFFF"/>
<stop offset="1" stop-color="#5AD0F2"/>
</linearGradient>
<linearGradient id="paint1_linear_97_11" x1="1432.1" y1="735.827" x2="1477.95" y2="1075.65" gradientUnits="userSpaceOnUse">
<stop stop-opacity="0"/>
<stop offset="0.973964" stop-opacity="0.85"/>
</linearGradient>
<linearGradient id="paint2_linear_97_11" x1="901.692" y1="111.475" x2="1054.97" y2="358.699" gradientUnits="userSpaceOnUse">
<stop stop-opacity="0.43"/>
<stop offset="1" stop-color="white" stop-opacity="0"/>
</linearGradient>
<linearGradient id="paint3_linear_97_11" x1="524.34" y1="0" x2="524.34" y2="1631.41" gradientUnits="userSpaceOnUse">
<stop stop-color="#00FFFF"/>
<stop offset="1" stop-color="#5AD0F2"/>
</linearGradient>
<linearGradient id="paint4_linear_97_11" x1="204.072" y1="1023.06" x2="1508.06" y2="1012.27" gradientUnits="userSpaceOnUse">
<stop stop-color="#5AD0F2"/>
<stop offset="1" stop-color="#00FFFF"/>
</linearGradient>
</defs>
</svg>
