<svg width="24" height="22" viewBox="0 0 24 22" fill="none" xmlns="http://www.w3.org/2000/svg">
<path fill-rule="evenodd" clip-rule="evenodd" d="M9.47661 0.25H13.8567C15.8198 0.249985 17.3697 0.249973 18.5816 0.41296C19.8264 0.580382 20.8262 0.932068 21.6133 1.71958C22.4011 2.50673 22.7529 3.50672 22.9204 4.75176C23.0834 5.96359 23.0833 7.5135 23.0833 9.47659V9.59008C23.0833 11.5532 23.0834 13.1031 22.9204 14.3149C22.7529 15.5598 22.4012 16.5597 21.6135 17.3469C20.8264 18.1345 19.8265 18.4863 18.5816 18.6537C17.3697 18.8167 15.8198 18.8167 13.8567 18.8167H13.8C13.1424 18.8167 10.7639 19.1254 7.01603 21.624C6.89283 21.7062 6.74807 21.75 6.6 21.75C6.23452 21.75 5.85455 21.6318 5.53112 21.3488C5.21631 21.0733 5.00416 20.6854 4.87701 20.2244C4.73567 19.7121 4.68446 19.0564 4.74167 18.2296C4.52189 18.2112 4.32062 18.1994 4.12698 18.188C4.09744 18.1863 4.06808 18.1846 4.03886 18.1828C3.77417 18.1671 3.50463 18.1498 3.25048 18.1101C2.69741 18.0237 2.20081 17.8283 1.72003 17.3471C0.932203 16.5599 0.580414 15.5599 0.41296 14.3149C0.249973 13.1031 0.249985 11.5532 0.25 9.59006V9.47661C0.249985 7.51351 0.249973 5.96359 0.41296 4.75176C0.580398 3.50684 0.932135 2.50692 1.7198 1.7198C2.50692 0.932135 3.50684 0.580398 4.75176 0.41296C5.96359 0.249973 7.51351 0.249985 9.47661 0.25ZM4.60259 16.7148L5.16126 15.8069C5.35238 15.4964 5.73919 15.3683 6.0779 15.5034C6.4166 15.6385 6.60904 15.9977 6.53391 16.3545C6.14145 18.2187 6.17134 19.2758 6.32299 19.8256C6.37681 20.0206 6.43881 20.1259 6.48173 20.18C10.2506 17.7326 12.8054 17.3167 13.8 17.3167C15.8324 17.3167 17.2814 17.3151 18.3816 17.1671C19.4603 17.022 20.0907 16.7487 20.5526 16.2864C21.015 15.8245 21.2887 15.1937 21.4338 14.115C21.5817 13.0147 21.5833 11.5657 21.5833 9.53333C21.5833 7.50093 21.5817 6.05196 21.4338 4.95171C21.2887 3.87302 21.0154 3.2426 20.5531 2.78069C20.0912 2.31838 19.4603 2.04465 18.3816 1.89957C17.2814 1.75159 15.8324 1.75 13.8 1.75H9.53333C7.50093 1.75 6.05196 1.75159 4.95171 1.89957C3.87302 2.04465 3.2426 2.31793 2.78069 2.78024C2.31838 3.24215 2.04465 3.87302 1.89957 4.95171C1.75159 6.05196 1.75 7.50093 1.75 9.53333C1.75 11.5657 1.75159 13.0147 1.89957 14.115C2.04465 15.1937 2.31793 15.8241 2.78024 16.286C2.9958 16.5019 3.18124 16.5811 3.48206 16.6281C3.65497 16.6551 3.85563 16.6693 4.12771 16.6855C4.15608 16.6872 4.18507 16.6889 4.21469 16.6906C4.33412 16.6976 4.46364 16.7052 4.60259 16.7148Z" fill="#E1E2E2"/>
</svg>
