<svg width="23" height="20" viewBox="0 0 23 20" fill="none" xmlns="http://www.w3.org/2000/svg">
<path fill-rule="evenodd" clip-rule="evenodd" d="M10.2974 1.39535C9.83889 1.39535 9.39917 1.58319 9.07497 1.91756C8.75076 2.25193 8.56863 2.70543 8.56863 3.17829V3.72093H14.4314V3.17829C14.4314 2.70543 14.2492 2.25193 13.925 1.91756C13.6008 1.58319 13.1611 1.39535 12.7026 1.39535H10.2974ZM15.7843 3.72093V3.17829C15.7843 2.33536 15.4596 1.52695 14.8817 0.930901C14.3038 0.334855 13.5199 0 12.7026 0H10.2974C9.48007 0 8.69623 0.334855 8.11829 0.930901C7.54036 1.52695 7.21569 2.33536 7.21569 3.17829V3.72093H3.0817C1.37972 3.72093 0 5.1439 0 6.89923V16.8217C0 18.577 1.37972 20 3.0817 20H19.9183C21.6203 20 23 18.577 23 16.8217V6.89923C23 5.1439 21.6203 3.72093 19.9183 3.72093H15.7843ZM15.1078 5.11628C15.1076 5.11628 15.1081 5.11628 15.1078 5.11628H7.89216C7.8919 5.11628 7.89241 5.11628 7.89216 5.11628L3.0817 5.11628C2.12693 5.11628 1.35294 5.91453 1.35294 6.89923V16.8217C1.35294 17.8064 2.12693 18.6047 3.0817 18.6047H19.9183C20.8731 18.6047 21.6471 17.8064 21.6471 16.8217V6.89923C21.6471 5.91453 20.8731 5.11628 19.9183 5.11628L15.1078 5.11628ZM8.49029 10.307C8.658 9.96266 9.0646 9.82376 9.39844 9.99673L9.65107 10.1276C9.65126 10.1277 9.65089 10.1275 9.65107 10.1276C10.225 10.4235 10.8584 10.5778 11.5 10.5778C12.1417 10.5778 12.7746 10.4238 13.3485 10.1278C13.3487 10.1278 13.3484 10.1279 13.3485 10.1278L13.6016 9.99673C13.9354 9.82376 14.342 9.96266 14.5097 10.307C14.6774 10.6513 14.5427 11.0706 14.2089 11.2436L13.954 11.3756C13.1921 11.7686 12.3519 11.9732 11.5 11.9732C10.6481 11.9732 9.80791 11.7686 9.04597 11.3756L8.7911 11.2436C8.45725 11.0706 8.32258 10.6513 8.49029 10.307Z" fill="#E1E2E2"/>
</svg>
