<svg width="25" height="20" viewBox="0 0 25 20" fill="none" xmlns="http://www.w3.org/2000/svg">
<path d="M21.1022 0C22.1223 0 23.1006 0.405219 23.8219 1.12651C24.5432 1.84781 24.9484 2.82609 24.9484 3.84615V16.1538C24.9484 17.1739 24.5432 18.1522 23.8219 18.8735C23.1006 19.5948 22.1223 20 21.1022 20H4.17916C3.1591 20 2.18081 19.5948 1.45952 18.8735C0.738226 18.1522 0.333008 17.1739 0.333008 16.1538V3.84615C0.333008 2.82609 0.738226 1.84781 1.45952 1.12651C2.18081 0.405219 3.1591 0 4.17916 0H21.1022ZM23.4099 6.09385L13.0315 12.2015C12.9333 12.2591 12.8237 12.2943 12.7103 12.3044C12.597 12.3145 12.4829 12.2993 12.3761 12.26L12.2499 12.2015L1.87147 6.09692V16.1538C1.87147 16.7659 2.1146 17.3529 2.54738 17.7856C2.98015 18.2184 3.56712 18.4615 4.17916 18.4615H21.1022C21.7143 18.4615 22.3012 18.2184 22.734 17.7856C23.1668 17.3529 23.4099 16.7659 23.4099 16.1538V6.09385ZM21.1022 1.53846H4.17916C3.56712 1.53846 2.98015 1.78159 2.54738 2.21437C2.1146 2.64715 1.87147 3.23412 1.87147 3.84615V4.31077L12.6407 10.6462L23.4099 4.30769V3.84615C23.4099 3.23412 23.1668 2.64715 22.734 2.21437C22.3012 1.78159 21.7143 1.53846 21.1022 1.53846Z" fill="#E1E2E2"/>
</svg>
