<svg width="20" height="20" viewBox="0 0 20 20" fill="none" xmlns="http://www.w3.org/2000/svg">
<path d="M1.42857 4.28571C1.42857 3.52795 1.72959 2.80123 2.26541 2.26541C2.80123 1.72959 3.52795 1.42857 4.28571 1.42857H7.85714C8.04658 1.42857 8.22826 1.35332 8.36222 1.21936C8.49617 1.08541 8.57143 0.903726 8.57143 0.714286C8.57143 0.524845 8.49617 0.343164 8.36222 0.20921C8.22826 0.075255 8.04658 0 7.85714 0H4.28571C3.14907 0 2.05898 0.451529 1.25526 1.25526C0.451529 2.05898 0 3.14907 0 4.28571V15.7143C0 16.8509 0.451529 17.941 1.25526 18.7447C2.05898 19.5485 3.14907 20 4.28571 20H15.7143C16.8509 20 17.941 19.5485 18.7447 18.7447C19.5485 17.941 20 16.8509 20 15.7143V12.1429C20 11.9534 19.9247 11.7717 19.7908 11.6378C19.6568 11.5038 19.4752 11.4286 19.2857 11.4286C19.0963 11.4286 18.9146 11.5038 18.7806 11.6378C18.6467 11.7717 18.5714 11.9534 18.5714 12.1429V15.7143C18.5714 16.472 18.2704 17.1988 17.7346 17.7346C17.1988 18.2704 16.472 18.5714 15.7143 18.5714H10V12.8571C10 12.0994 9.69898 11.3727 9.16316 10.8368C8.62734 10.301 7.90062 10 7.14286 10H1.42857V4.28571ZM1.42857 11.4286H7.14286C7.52174 11.4286 7.8851 11.5791 8.15301 11.847C8.42092 12.1149 8.57143 12.4783 8.57143 12.8571V18.5714H4.28571C3.52795 18.5714 2.80123 18.2704 2.26541 17.7346C1.72959 17.1988 1.42857 16.472 1.42857 15.7143V11.4286ZM11.4286 0.714286C11.4286 0.524845 11.5038 0.343164 11.6378 0.20921C11.7717 0.075255 11.9534 0 12.1429 0H19.2857C19.4752 0 19.6568 0.075255 19.7908 0.20921C19.9247 0.343164 20 0.524845 20 0.714286V7.85714C20 8.04658 19.9247 8.22826 19.7908 8.36222C19.6568 8.49617 19.4752 8.57143 19.2857 8.57143C19.0963 8.57143 18.9146 8.49617 18.7806 8.36222C18.6467 8.22826 18.5714 8.04658 18.5714 7.85714V2.43857L12.6486 8.36286C12.5144 8.49698 12.3325 8.57233 12.1429 8.57233C11.9532 8.57233 11.7713 8.49698 11.6371 8.36286C11.503 8.22873 11.4277 8.04682 11.4277 7.85714C11.4277 7.66746 11.503 7.48555 11.6371 7.35143L17.5614 1.42857H12.1429C11.9534 1.42857 11.7717 1.35332 11.6378 1.21936C11.5038 1.08541 11.4286 0.903726 11.4286 0.714286Z" fill="#E1E2E2"/>
</svg>
