<svg width="19" height="20" viewBox="0 0 19 20" fill="none" xmlns="http://www.w3.org/2000/svg">
<path fill-rule="evenodd" clip-rule="evenodd" d="M4.63858 1.8343C5.81306 0.659816 7.406 0 9.06696 0C10.7279 0 12.3209 0.659816 13.4953 1.8343C14.6698 3.00877 15.3296 4.60171 15.3296 6.26268C15.3296 9.43789 16.0091 11.4311 16.6519 12.6095C16.9741 13.2003 17.2907 13.5928 17.5164 13.8311C17.6295 13.9504 17.7202 14.0315 17.778 14.0797C17.8069 14.1038 17.8276 14.1197 17.8388 14.128L17.848 14.1347C18.084 14.2955 18.1887 14.5911 18.1058 14.865C18.0223 15.1409 17.768 15.3296 17.4797 15.3296H0.654256C0.365969 15.3296 0.111662 15.1409 0.0281215 14.865C-0.0547811 14.5912 0.0498763 14.2955 0.285893 14.1347L0.295094 14.128C0.306295 14.1197 0.327016 14.1038 0.355939 14.0797C0.413766 14.0315 0.504463 13.9504 0.617496 13.8311C0.84322 13.5928 1.15979 13.2003 1.48205 12.6095C2.12477 11.4311 2.80429 9.43789 2.80429 6.26268C2.80429 4.60171 3.4641 3.00877 4.63858 1.8343ZM2.14414 14.0212H15.9898C15.8314 13.7964 15.6668 13.5358 15.5032 13.236C14.7438 11.8438 14.0212 9.63067 14.0212 6.26268C14.0212 4.94872 13.4993 3.68859 12.5702 2.75948C11.641 1.83038 10.3809 1.30841 9.06696 1.30841C7.75301 1.30841 6.49287 1.83038 5.56377 2.75948C4.63466 3.68859 4.1127 4.94872 4.1127 6.26268C4.1127 9.63067 3.39009 11.8438 2.6307 13.236C2.46716 13.5358 2.30255 13.7964 2.14414 14.0212ZM7.12159 17.8485C7.43412 17.6672 7.83445 17.7736 8.01574 18.0861C8.12257 18.2703 8.27591 18.4231 8.4604 18.5294C8.64488 18.6357 8.85405 18.6916 9.06696 18.6916C9.27987 18.6916 9.48904 18.6357 9.67352 18.5294C9.85801 18.4231 10.0113 18.2703 10.1182 18.0861C10.2995 17.7736 10.6998 17.6672 11.0123 17.8485C11.3249 18.0298 11.4312 18.4301 11.25 18.7426C11.0281 19.1251 10.7097 19.4425 10.3266 19.6632C9.94345 19.8839 9.50908 20 9.06696 20C8.62484 20 8.19047 19.8839 7.80735 19.6632C7.42423 19.4425 7.10581 19.1251 6.88396 18.7426C6.70267 18.4301 6.80906 18.0298 7.12159 17.8485Z" fill="#E1E2E2"/>
</svg>
