<svg width="15" height="17" viewBox="0 0 15 17" fill="none" xmlns="http://www.w3.org/2000/svg">
<path d="M7.11111 8.7963C8.0541 8.7963 8.95847 8.42169 9.62527 7.7549C10.2921 7.0881 10.6667 6.18373 10.6667 5.24074C10.6667 4.29775 10.2921 3.39338 9.62527 2.72658C8.95847 2.05979 8.0541 1.68519 7.11111 1.68519C6.16812 1.68519 5.26375 2.05979 4.59695 2.72658C3.93016 3.39338 3.55556 4.29775 3.55556 5.24074C3.55556 6.18373 3.93016 7.0881 4.59695 7.7549C5.26375 8.42169 6.16812 8.7963 7.11111 8.7963ZM7.11111 9.98148C5.85379 9.98148 4.64796 9.48201 3.7589 8.59295C2.86984 7.70389 2.37037 6.49806 2.37037 5.24074C2.37037 3.98342 2.86984 2.77759 3.7589 1.88853C4.64796 0.99947 5.85379 0.5 7.11111 0.5C8.36843 0.5 9.57426 0.99947 10.4633 1.88853C11.3524 2.77759 11.8519 3.98342 11.8519 5.24074C11.8519 6.49806 11.3524 7.70389 10.4633 8.59295C9.57426 9.48201 8.36843 9.98148 7.11111 9.98148ZM13.037 15.9074V14.1296C13.037 13.6581 12.8497 13.2059 12.5163 12.8726C12.1829 12.5392 11.7308 12.3519 11.2593 12.3519H2.96296C2.49147 12.3519 2.03928 12.5392 1.70588 12.8726C1.37249 13.2059 1.18519 13.6581 1.18519 14.1296V15.9074C1.18519 16.0646 1.12275 16.2153 1.01162 16.3264C0.900486 16.4376 0.749758 16.5 0.592593 16.5C0.435427 16.5 0.284699 16.4376 0.173566 16.3264C0.0624338 16.2153 0 16.0646 0 15.9074V14.1296C0 13.3438 0.312168 12.5902 0.867832 12.0345C1.4235 11.4788 2.17714 11.1667 2.96296 11.1667H11.2593C12.0451 11.1667 12.7987 11.4788 13.3544 12.0345C13.9101 12.5902 14.2222 13.3438 14.2222 14.1296V15.9074C14.2222 16.0646 14.1598 16.2153 14.0487 16.3264C13.9375 16.4376 13.7868 16.5 13.6296 16.5C13.4725 16.5 13.3217 16.4376 13.2106 16.3264C13.0995 16.2153 13.037 16.0646 13.037 15.9074Z" fill="#FB8122"/>
</svg>
