<svg width="16" height="16" viewBox="0 0 16 16" fill="none" xmlns="http://www.w3.org/2000/svg">
<path fill-rule="evenodd" clip-rule="evenodd" d="M8.78976 0.00792508C9.1064 -0.0184443 9.42508 0.0211583 9.72563 0.12423C10.0262 0.227304 10.3021 0.391608 10.5359 0.606759C10.7698 0.821909 10.9564 1.08323 11.0841 1.37419C11.2118 1.66516 11.2777 1.97945 11.2777 2.2972V3.82265C11.2777 4.16868 10.9972 4.44919 10.6512 4.44919C10.3052 4.44919 10.0246 4.16868 10.0246 3.82265V2.29726C10.0246 2.15284 9.99467 2.00996 9.93664 1.87771C9.8786 1.74546 9.79376 1.62668 9.68747 1.52888C9.58119 1.43108 9.45577 1.3564 9.31915 1.30955C9.18253 1.2627 9.03767 1.2447 8.89374 1.25668L2.21064 1.81305C1.94962 1.8348 1.70628 1.95385 1.52892 2.14659C1.35155 2.33932 1.2531 2.59168 1.25308 2.8536M8.78976 0.00792508L2.10666 0.564293C1.53239 0.612122 0.997046 0.874029 0.606836 1.29807C0.216625 1.72211 2.85314e-05 2.27731 0 2.85357V13.1456C2.85314e-05 13.7218 0.216625 14.2771 0.606836 14.7011C0.997046 15.1251 1.53237 15.387 2.10664 15.4349L8.78968 15.9921C9.10643 16.0185 9.42526 15.9788 9.72591 15.8757C10.0266 15.7725 10.3025 15.6081 10.5364 15.3929C10.7702 15.1776 10.9568 14.9161 11.0844 14.625C11.212 14.334 11.2778 14.0197 11.2777 13.7019V12.1765C11.2777 11.8305 10.9972 11.55 10.6512 11.55C10.3052 11.55 10.0246 11.8305 10.0246 12.1765V13.7019C10.0247 13.8464 9.9948 13.9896 9.93679 14.1219C9.87879 14.2543 9.79396 14.3731 9.68766 14.4709C9.58137 14.5688 9.45593 14.6435 9.31927 14.6904C9.18262 14.7373 9.03772 14.7553 8.89374 14.7433L2.2107 14.1861C1.94967 14.1644 1.70628 14.0453 1.52892 13.8526C1.35155 13.6598 1.2531 13.4075 1.25308 13.1456V2.8536M12.1489 4.17669C12.4147 3.95519 12.8098 3.99112 13.0313 4.25696L15.8156 7.59851C16.0092 7.83085 16.0092 8.16832 15.8156 8.40066L13.0313 11.7422C12.8098 12.008 12.4147 12.044 12.1489 11.8225C11.883 11.601 11.8471 11.2059 12.0686 10.9401L13.9967 8.62613H7.8158C7.46977 8.62613 7.18926 8.34561 7.18926 7.99958C7.18926 7.65356 7.46977 7.37304 7.8158 7.37304H13.9967L12.0686 5.05911C11.8471 4.79328 11.883 4.3982 12.1489 4.17669Z" fill="#E1E2E2"/>
</svg>
